<svg width="64" height="64" viewBox="0 0 64 64" fill="none" xmlns="http://www.w3.org/2000/svg">
  <path d="M32 10C19.9 10 10 19.9 10 32C10 41.7 16.3 49.9 25 52.8V46.4C21.4 47.2 20.3 44.9 20.3 44.9C19 41.8 17.2 41 17.2 41C14.7 39.3 17.4 39.4 17.4 39.4C20.2 39.6 21.7 42.2 21.7 42.2C24.1 46.4 28 45.1 29.7 44.3C30 42.5 30.7 41.3 31.4 40.6C24.2 39.8 16.6 37 16.6 24.7C16.6 21.2 17.8 18.4 19.8 16.2C19.5 15.4 18.4 12.2 20.1 7.9C20.1 7.9 22.7 7.1 31.9 13.2C34.4 12.5 37 12.1 39.6 12.1C42.2 12.1 44.8 12.5 47.3 13.2C56.5 7.1 59.1 7.9 59.1 7.9C60.8 12.2 59.7 15.4 59.4 16.2C61.4 18.4 62.6 21.2 62.6 24.7C62.6 37 55 39.8 47.8 40.6C48.8 41.5 49.6 43.2 49.6 45.8V52.8C58.3 49.9 64.6 41.7 64.6 32C64.6 19.9 54.7 10 42.6 10H32Z" fill="#111827" transform="translate(-5) scale(0.85)"/>
</svg>
